<svg width="32" height="24" viewBox="0 0 32 24" fill="none" xmlns="http://www.w3.org/2000/svg">
<g filter="url(#filter0_d_964_17640)">
<path d="M16.0016 5.84744C12.5966 5.84744 9.84859 8.59544 9.84859 12.0004C9.84859 15.4054 12.5966 18.1534 16.0016 18.1534C19.4066 18.1534 22.1546 15.4054 22.1546 12.0004C22.1546 8.59544 19.4066 5.84744 16.0016 5.84744ZM16.0016 15.9994C13.7996 15.9994 12.0026 14.2024 12.0026 12.0004C12.0026 9.79844 13.7996 8.00144 16.0016 8.00144C18.2036 8.00144 20.0006 9.79844 20.0006 12.0004C20.0006 14.2024 18.2036 15.9994 16.0016 15.9994ZM22.4066 4.16144C21.6116 4.16144 20.9696 4.80344 20.9696 5.59844C20.9696 6.39344 21.6116 7.03544 22.4066 7.03544C23.2016 7.03544 23.8436 6.39644 23.8436 5.59844C23.8438 5.40966 23.8068 5.22269 23.7347 5.04824C23.6625 4.87379 23.5567 4.71528 23.4232 4.5818C23.2897 4.44831 23.1312 4.34247 22.9568 4.27034C22.7823 4.19821 22.5954 4.1612 22.4066 4.16144ZM27.9956 12.0004C27.9956 10.3444 28.0106 8.70344 27.9176 7.05044C27.8246 5.13044 27.3866 3.42644 25.9826 2.02244C24.5756 0.615437 22.8746 0.180437 20.9546 0.0874372C19.2986 -0.00556279 17.6576 0.00943725 16.0046 0.00943725C14.3486 0.00943725 12.7076 -0.00556279 11.0546 0.0874372C9.13459 0.180437 7.43059 0.618437 6.02659 2.02244C4.61959 3.42944 4.18459 5.13044 4.09159 7.05044C3.99859 8.70644 4.01359 10.3474 4.01359 12.0004C4.01359 13.6534 3.99859 15.2974 4.09159 16.9504C4.18459 18.8704 4.62259 20.5744 6.02659 21.9784C7.43359 23.3854 9.13459 23.8204 11.0546 23.9134C12.7106 24.0064 14.3516 23.9914 16.0046 23.9914C17.6606 23.9914 19.3016 24.0064 20.9546 23.9134C22.8746 23.8204 24.5786 23.3824 25.9826 21.9784C27.3896 20.5714 27.8246 18.8704 27.9176 16.9504C28.0136 15.2974 27.9956 13.6564 27.9956 12.0004ZM25.3556 19.0744C25.1366 19.6204 24.8726 20.0284 24.4496 20.4484C24.0266 20.8714 23.6216 21.1354 23.0756 21.3544C21.4976 21.9814 17.7506 21.8404 16.0016 21.8404C14.2526 21.8404 10.5026 21.9814 8.92459 21.3574C8.37859 21.1384 7.97059 20.8744 7.55059 20.4514C7.12759 20.0284 6.86359 19.6234 6.64459 19.0774C6.02059 17.4964 6.16159 13.7494 6.16159 12.0004C6.16159 10.2514 6.02059 6.50144 6.64459 4.92344C6.86359 4.37744 7.12759 3.96944 7.55059 3.54944C7.97359 3.12944 8.37859 2.86244 8.92459 2.64344C10.5026 2.01944 14.2526 2.16044 16.0016 2.16044C17.7506 2.16044 21.5006 2.01944 23.0786 2.64344C23.6246 2.86244 24.0326 3.12644 24.4526 3.54944C24.8756 3.97244 25.1396 4.37744 25.3586 4.92344C25.9826 6.50144 25.8416 10.2514 25.8416 12.0004C25.8416 13.7494 25.9826 17.4964 25.3556 19.0744Z" fill="#E61F5A"/>
</g>
<defs>
<filter id="filter0_d_964_17640" x="0" y="0" width="32" height="32" filterUnits="userSpaceOnUse" color-interpolation-filters="sRGB">
<feFlood flood-opacity="0" result="BackgroundImageFix"/>
<feColorMatrix in="SourceAlpha" type="matrix" values="0 0 0 0 0 0 0 0 0 0 0 0 0 0 0 0 0 0 127 0" result="hardAlpha"/>
<feOffset dy="4"/>
<feGaussianBlur stdDeviation="2"/>
<feComposite in2="hardAlpha" operator="out"/>
<feColorMatrix type="matrix" values="0 0 0 0 0 0 0 0 0 0 0 0 0 0 0 0 0 0 0.25 0"/>
<feBlend mode="normal" in2="BackgroundImageFix" result="effect1_dropShadow_964_17640"/>
<feBlend mode="normal" in="SourceGraphic" in2="effect1_dropShadow_964_17640" result="shape"/>
</filter>
</defs>
</svg>
